<?xml version="1.0" encoding="UTF-8"?>
<svg id="Layer_1" xmlns="http://www.w3.org/2000/svg" version="1.1" viewBox="0 0 500 500">
  <!-- Generator: Adobe Illustrator 30.1.0, SVG Export Plug-In . SVG Version: 2.1.1 Build 136)  -->
  <defs>
    <style>
      .st0 {
        fill: #fff;
      }

      .st1 {
        fill: #fbbf24;
      }

      .st2 {
        fill: #f59e0b;
      }
    </style>
  </defs>
  <g>
    <path d="M491.85,335.16c.45,8.09-6.8,15.1-15.5,13.23-6.42-1.38-12.29-2.18-18.82,1.31,2.02,2.62,4.9,3.37,7.99,2.99,8.36-1.02,15.49,4.16,16.93,12.13,1.22,6.77-3.09,15.86-11.54,16.19-8.04.33-16.7.3-24.55-1.15-5.88-1.09-10.37-6.27-17.15-6.94,5.97,7.52,13.92,12.94,22.32,17.88,7.83,4.6,8.72,15.11,3.41,21.27-5.54,6.43-15.68,6.34-21.41.17-.96-1.02-3.57-1.42-4.46-.78-4.45,3.26,7.88,10.43-6.19,21.63-6.06,4.82-13.75.62-19.29-1.5-7.96,3.63-15.77,6.24-22.73-1.81-3.75-4.33-8.38-8.46-12.97-12.93-4.66-4.53-10.99,9.38-23.33.29-5.31-3.9-6.5-9.63-5.5-17.02l-11.27-11.43c-6.77,2.7-12.84,1.56-17.27-2.4-5.88-5.27-4.39-11.57-3.19-18.87,2.16-13.2.55-26.49,1-39.97l-33.6-31.91c-5-4.76-6.96-10.52-5.61-16.99l-19.07-18.66-20.19,19.37c.81,5.14.05,10.22-3.86,14.04l-35.29,34.49c.46,12.98-1.16,26.59.86,39.42,1.06,6.73,4.41,12.65-1.63,18.65-3.96,3.94-10.44,6.25-17.24,2.9l-12.73,12.51c.73,7.07-2.02,13.51-8.02,16.98-6.19,3.58-13.07,1.78-19.3-3.79l-14.18,15.11c-6.57,6.99-15.17,7.49-22.77,1.47-4.94,3.1-10.95,5.92-16.56,3.46-5.22-2.29-10.11-7.39-9.36-14.53.29-2.74,2.46-6.24,4.01-9.05-.42-1.31-4.33-1.75-5.4-.35-5.68,7.48-14.73,8.26-21.51,2.72-6.05-4.94-7.75-16.65.03-21.52,8.66-5.41,17.13-10.52,23.3-19.52-6.98.9-11.69,6.05-17.91,7.53-7.76,1.85-17.42,1.92-25.36.91-7.6-.97-10.94-9.92-9.67-15.73,3.52-16.03,18.47-9.96,23.59-14.57-9.77-8.33-23.41,4.16-30.84-8.61-2.52-4.31-2.63-10.53.89-14.7,7.97-9.45,17.11-.35,23.79-4.1,7.89-4.44,14.33-11.81,22.87-14.82,10.16-3.57,21.68.69,32.57-1.37l64.58-36.86c.6-3.33,1.5-7.47,3.69-9.46,6.89-6.27,13.37-11.91,20.53-17.57,5.22-4.13,12.21-1.77,17.87.15l20.8-18.62L90.88,94.78c-7.07-7.24-8.24-17.39-1.83-24.39,6.35-6.95,17.37-7.89,24.82-.81l134.9,128.18,36.3-34.19,99.09-92.6c7.4-6.93,16.77-9.04,24.74-2.11,6.57,5.7,7.94,17.16.79,24.51l-96.02,98.78-30.88,32.46,18.38,17.07c5.56-.58,12.4-1.88,17.59,2.07,8.46,6.44,16.38,13.08,24.34,20.11l1.62,6.08,64.84,37,27.97.09c3.7.01,7.53,1.6,10.49,3.82,6.14,4.62,12.8,9.41,19.51,13.13,1.8.99,6.27-.6,8.62-1.03,6.93-1.26,15.27,4.46,15.71,12.22ZM482.82,339.91c1.61-1.78,2.08-5.96.15-8.1-2.08-2.32-5.32-1.63-8.52.15-3.38,1.87-10.98,1.18-14.45-1.4l-19.55-14.51-34.64-.62-66.32-37.91c-3.28-1.88-6.41-2.67-9.27.42l34.4,23.45.36,27.16,30.43,30.64.1,22.55,25.69,25.33c1.92-.13,4.61-3.33,4.09-5l-23.76-23.4c-.51-4.31-.51-9.07-.18-14.04l35.8,35.9c.56,2.37,1.4,5.83,2.94,6.76,1.83,1.1,5.91,1.52,7.61.42,3.18-2.04,3.45-6.34,2-9.2-1.25-2.43-4.56-3.72-8.38-3.26l-70.82-69.83.13-21.21c2.62-.42,5.88,1.53,5.82,3.69-.28,9.36,5.21.77,12.62,5.5l39.05,25,45.98.34c2.63.02,5.93,4.28,8.74,1.15ZM471.17,373.41c3.57-1.4,4.55-6.22,3.01-9.15-1.8-3.43-5.71-4.83-9.18-3.37-13.47,5.71-20.14-7.57-29.51-13.28l-21.13-.3c-1.07-.01-3.52,1.62-3.35,2.67.13.86,1.78,2.44,2.87,2.45l18.91.31,10.39,9.17c-22.93,3.68-17.5-8.17-26.7-1.95.36,2.34,3.77,7.58,7.18,7.62l37.1.45c2.45,3.97,5.47,7.32,10.42,5.37ZM415.6,427.33c3.42-.43,6.89-2.27,6.48-6.71-.37-3.95-3.7-6.42-8.84-6.38l-33.82-35.2c-.96-.99-4.09-.96-4.6,0-.5.94-.29,3.73.45,4.52l33.7,35.52c2.44,2.58.25,9.05,6.63,8.25ZM403.94,345.89c4.27-.36,6.75-4.31,5.76-8.2-1.05-4.21-5.19-6.03-9.93-4.91-4.4-4.57-10.8-9.96-16.15-12.63-.88-.45-4.52.88-4.15,1.69.3.66,1.1,2.28,1.77,2.82l15.26,12.59c-.81,5.54,3.07,8.98,7.44,8.62ZM402.28,88.22c3.9-3.89,4.94-7.98,1.3-12.24-2.96-3.45-8.09-3.17-11.94.46l-98.81,92.88-87.44,80.51c6.55,5.6,11.18,11.07,17,18.05l30.2-30.6,149.69-149.06ZM398.84,422.12c1.03-4.9-3.28-4.57-6.29-7.6l-27.56-27.78-.22-18.77-12.22-12.25c-.78-.78-3.63-.8-3.95.09-.25.67-.61,3.5-.13,4.01l10.88,11.43.34,19.13,27.2,28.15c2.12,2.18-1.15,8.69,4.52,8.55,3.71-.09,6.51-.56,7.45-4.96ZM384.03,366.64c.64-5.71-4.23-4.4-7.3-6.68-7.23-5.42-13.6-12.65-20.27-19.12l-.11-33.27-31.32-24.83c-1.89,1.25-3.52,2.48-5.07,3.85l30.7,24.96.03,32.51,21.38,20.79c-1.55,6.09,2.39,8.26,6.33,8.34,3.78.09,5.29-3.6,5.62-6.56ZM357.85,410.56c2.13-1.27,3.88-6.13,1.62-8.37-3.26-3.26-3.96-5.92-3.53-10.41l-16.3-17.22c-.68-6.86-.83-15.48.16-21.53.26-1.6,3.9-4.73,3.17-5.87l-3.7-5.78c-3.85-6.03-.41-18.59-.66-27.31l-21.92-20.38c-.78-.73-2.91-1.09-3.83-.92-.92.17-2.51,3.15-1.87,3.76l21.6,20.58-.08,25.61c0,1.41-2.65,3.82-2.36,5.12.26,1.13,2.96,3.48,3.04,4.74.42,6.69.38,16.46.41,24.37l13.92,14.89c1,1.07,2.68,3.63,2.42,4.91-.25,1.28-1.51,3.14-2.67,4.82-1.91,2.76-.92,7.35,1.68,8.99,2.59,1.64,6.26,1.54,8.88-.01ZM333.67,267.27l-19.9-16.32c-2.28-1.87-6.35-2.18-9.01-.33-9.41,6.57-25.66,21.69-26.88,33.33l18.09,17.49c9.52-14.41,21.91-29.02,37.7-34.18ZM326.95,377.96c3.52-4.14-2.01-6.75-2.05-10.18l-.61-49.81-17.67-17.27-3.24,5.04,14.96,14.99v47.03c-4.6,2.82-5.86,8.6-1.88,12.12,4.13,3.65,8.28.69,10.49-1.91ZM293.23,248.95l-16.81-15.77-17.47,18.54,16.15,15.31c5.5-6.86,10.98-12.29,18.12-18.08ZM241.45,203.31L106.3,74.79c-3.33-3.16-8.46-.98-10.18,1.51-1.8,2.59-2.16,7.61.6,10.41l128.92,131.24c5.72-4.91,11.05-9.56,15.82-14.65ZM218.93,284.86c1.9-10.34-27.81-41.1-35.59-34.34l-18.52,16.11c18.6,7.93,26.85,19.19,38.11,33.72l16-15.49ZM193.45,308.17c1-1.01,1.72-2.72,1.57-3.79-.12-.89-2.92-2.88-3.81-2.02l-16,15.42-.04,48.28-2.96,6.52c-1.73,3.81,1.73,8.03,5.14,9.03,3.47,1.01,6.72-1.7,8.29-4.19,3.09-4.92-4.01-6.86-4.05-10.11l-.61-46.54,12.47-12.6ZM186.75,298.26c.98-.94.68-3.45-.24-4.15-1.14-.87-3.83-.73-4.8.2l-21.4,20.3-.51,27.87c-.02,1.65-3.46,4.15-2.99,5.35.41,1.04,2.52,3.45,2.67,4.7.73,5.74.78,14.46.62,21.2l-17.1,17.71-.21,7.99c-4.27,2.13-5.78,6.31-3.64,9.55,2.06,3.14,5.7,4.16,8.28,2.63,3.43-2.02,5.85-5.88,2.81-9.85-1.63-2.13-2.51-5.79-.4-7.95l15.77-16.2.81-24.45c.05-1.42,2.7-3.85,2.74-5.16.04-1.29-2.65-3.84-2.74-5.29-.47-7.18-.55-16.65-.47-24.56l20.77-19.91ZM177.22,288.38c1.04-.89.22-3.4-.54-4s-3.31-.83-4.11-.15l-29.53,24.8-.53,31.61c-6.71,6.69-13.04,13.15-19.81,19.22-2.9,2.59-7.12,3.41-5.73,8.13,1.13,3.81,4.23,5.74,8.14,4.84,4.98-1.14,1.76-6.75,3.94-9.22,6.24-7.03,12.48-13.05,19.05-19.73l.26-30.75,28.87-24.76ZM134.07,303.74l34.75-25.78c-1.45-2.08-5.11-3.04-7.55-1.65l-68.88,39.47-32.7.42-18.41,13.4c-14.3,10.4-18.23-4.4-24.59,2.16-2,2.06-1.06,5.63.66,7.75,2.67,3.3,5.49-.6,8.28-.63l46.45-.46,41.82-27.05c2.39.66,6.8,1.75,7.3.42.64-2.41,1.24-5.32,2.11-6.56.81-1.17,3.56-1.6,5.35-1.61l-.58,22.24-67.79,67.49c-1.14,1.13-3.53,1.69-4.87,1.9-4.69.75-6.71,4.71-6.1,7.99.8,4.41,4.6,5.54,7.84,5.49,5.72-.07,3.63-6.37,5.84-8.83,11.56-12.79,23.67-24.38,36.18-36.73.59,4.31.75,9.6.22,13.71l-24.46,24.56c-1.44,1.44,1.27,6.08,3.21,5.59l26.87-26.75.09-22.94,28.63-28.41.33-25.22ZM149.9,361.4c.92-.93.91-3.73.05-4.53-.72-.65-3.51-.55-4.26.18-14.38,14.3-11.49,7.37-12.02,30.54l-27.52,27.43c-1.34,1.32-5.36,2.33-5.8,4-.53,2-.11,5.82,1.51,6.99,2.54,1.85,6.38.78,8.45-.47,1.55-.93.75-6.33,2.14-7.74l26.53-27.05.6-18.96,10.31-10.4ZM125.19,383.13c.9-.93.97-3.9-.01-4.61-.81-.6-3.75-.5-4.67.43l-34.24,34.62c-2.36,1.34-6.93,2.36-8.15,4.97-1.35,2.87-.12,6.7,2.27,8.07,1.91,1.1,5.02.5,7.21.02,3.01-.66,1.37-6.23,3.08-7.99l34.51-35.51ZM105.31,335.16l14.73-12.39c-2.34-3.62-5.98-2.99-8.53-.87l-10.14,8.47c-.45,1.39,2.3,4.93,3.94,4.79ZM97.47,345.62c3.56-.63,5.44-4.35,4.92-8.17-.39-2.78-3.71-5.48-7.47-4.73-4.79.94-6.21,5.1-5,8.44,1.04,2.92,4.47,5.03,7.56,4.47ZM86.68,352.56c1.1-.01,3.12-2.65,2.55-3.42-.46-.62-2.2-1.81-3-1.8l-22.7.17-14.87,12.22c-4.78,3.92-10.25,2.16-15.63.66-3.54-.99-7.51,2.54-7.94,5.08-.62,3.66,1.02,7.53,4.26,8.37,8.46,2.18,7.68-6.06,13.2-6.07l34.76-.1c2.92-.01,5.87-6.7,3.93-8.59-2.53-2.45-5.74,1.68-8.34,2.33-5.74,1.43-11.57.96-17.12.53l9.97-9.16,20.93-.24Z"/>
    <path class="st1" d="M482.97,331.81c1.93,2.14,1.45,6.32-.15,8.1-2.81,3.13-6.11-1.13-8.74-1.15l-45.98-.34-39.05-25c-7.4-4.73-12.9,3.85-12.62-5.5.07-2.16-3.2-4.11-5.82-3.69l-.13,21.21,70.82,69.83c3.82-.47,7.13.83,8.38,3.26,1.45,2.86,1.18,7.15-2,9.2-1.7,1.1-5.78.67-7.61-.42-1.54-.93-2.38-4.4-2.94-6.76l-35.8-35.9c-.33,4.97-.33,9.73.18,14.04l23.76,23.4c.52,1.67-2.17,4.87-4.09,5l-25.69-25.33-.1-22.55-30.43-30.64-.36-27.16-34.4-23.45c2.87-3.09,5.99-2.3,9.27-.42l66.32,37.91,34.64.62,19.55,14.51c3.47,2.58,11.07,3.27,14.45,1.4,3.2-1.78,6.44-2.48,8.52-.15ZM452.47,332.63l-14.28-10.91-24.69-.07c19.95,12.81,13.55,12.31,38.96,10.98Z"/>
    <path class="st1" d="M474.17,364.26c1.54,2.93.56,7.75-3.01,9.15-4.95,1.94-7.97-1.4-10.42-5.37l-37.1-.45c-3.41-.04-6.82-5.28-7.18-7.62,9.2-6.22,3.77,5.63,26.7,1.95l-10.39-9.17-18.91-.31c-1.09-.01-2.74-1.6-2.87-2.45-.16-1.05,2.28-2.68,3.35-2.67l21.13.3c9.37,5.71,16.03,18.99,29.51,13.28,3.47-1.47,7.38-.07,9.18,3.37Z"/>
    <path d="M438.2,321.72l14.28,10.91c-25.41,1.34-19.01,1.83-38.96-10.98l24.69.07Z"/>
    <path class="st1" d="M422.09,420.62c.41,4.44-3.06,6.27-6.48,6.71-6.38.8-4.19-5.67-6.63-8.25l-33.7-35.52c-.74-.78-.94-3.57-.45-4.52.51-.96,3.65-.99,4.6,0l33.82,35.2c5.14-.03,8.47,2.43,8.84,6.38Z"/>
    <path class="st1" d="M409.71,337.7c.99,3.89-1.5,7.84-5.76,8.2-4.36.36-8.25-3.08-7.44-8.62l-15.26-12.59c-.67-.54-1.47-2.16-1.77-2.82-.37-.81,3.27-2.14,4.15-1.69,5.35,2.67,11.76,8.06,16.15,12.63,4.74-1.12,8.88.69,9.93,4.91Z"/>
    <path class="st0" d="M403.59,75.98c3.64,4.26,2.59,8.35-1.3,12.24l-149.69,149.06-30.2,30.6c-5.82-6.98-10.45-12.45-17-18.05l87.44-80.51,98.81-92.88c3.85-3.63,8.98-3.91,11.94-.46Z"/>
    <path class="st1" d="M392.56,414.52c3.01,3.03,7.32,2.7,6.29,7.6-.93,4.4-3.73,4.87-7.45,4.96-5.67.13-2.4-6.37-4.52-8.55l-27.2-28.15-.34-19.13-10.88-11.43c-.48-.51-.12-3.33.13-4.01.33-.89,3.17-.87,3.95-.09l12.22,12.25.22,18.77,27.56,27.78Z"/>
    <path class="st1" d="M376.74,359.96c3.06,2.28,7.94.97,7.3,6.68-.34,2.95-1.85,6.64-5.62,6.56-3.94-.08-7.88-2.25-6.33-8.34l-21.38-20.79-.03-32.51-30.7-24.96c1.55-1.38,3.18-2.61,5.07-3.85l31.32,24.83.11,33.27c6.67,6.47,13.04,13.7,20.27,19.12Z"/>
    <path class="st1" d="M359.47,402.19c2.26,2.24.51,7.1-1.62,8.37-2.62,1.55-6.29,1.65-8.88.01-2.61-1.64-3.59-6.23-1.68-8.99,1.16-1.68,2.42-3.54,2.67-4.82.26-1.28-1.42-3.83-2.42-4.91l-13.92-14.89c-.03-7.91.01-17.68-.41-24.37-.08-1.26-2.78-3.62-3.04-4.74-.29-1.3,2.36-3.71,2.36-5.12l.08-25.61-21.6-20.58c-.64-.61.94-3.58,1.87-3.76.92-.16,3.05.2,3.83.92l21.92,20.38c.25,8.73-3.19,21.29.66,27.31l3.7,5.78c.73,1.14-2.91,4.28-3.17,5.87-.99,6.05-.85,14.67-.16,21.53l16.3,17.22c-.43,4.49.27,7.15,3.53,10.41Z"/>
    <path class="st2" d="M313.77,250.95l19.9,16.32c-15.8,5.16-28.18,19.77-37.7,34.18l-18.09-17.49c1.22-11.64,17.47-26.76,26.88-33.33,2.66-1.86,6.73-1.54,9.01.33ZM301.06,277.55c2.78-.97,4.69-3.9,4.26-6.37-.41-2.32-3.76-4.91-6.64-4.16-3.44.89-4.59,4.51-3.66,6.88.89,2.3,4.01,4.36,6.05,3.65Z"/>
    <path class="st1" d="M324.9,367.78c.04,3.43,5.57,6.05,2.05,10.18-2.2,2.61-6.36,5.56-10.49,1.91-3.98-3.52-2.72-9.29,1.87-12.12v-47.03s-14.95-14.99-14.95-14.99l3.24-5.04,17.67,17.27.61,49.81Z"/>
    <path d="M305.31,271.18c.43,2.48-1.48,5.41-4.26,6.37-2.04.72-5.16-1.35-6.05-3.65-.93-2.38.22-5.99,3.66-6.88,2.89-.75,6.23,1.83,6.64,4.16Z"/>
    <path class="st0" d="M276.43,233.17l16.81,15.77c-7.14,5.79-12.62,11.21-18.12,18.08l-16.15-15.31,17.47-18.54Z"/>
    <path class="st0" d="M106.3,74.79l135.15,128.52c-4.77,5.08-10.1,9.74-15.82,14.65L96.71,86.71c-2.76-2.8-2.4-7.82-.6-10.41,1.73-2.49,6.85-4.67,10.18-1.51Z"/>
    <path class="st2" d="M183.34,250.52c7.77-6.76,37.49,24,35.59,34.34l-16,15.49c-11.26-14.53-19.51-25.79-38.11-33.72l18.52-16.11ZM199.07,277.52c2.33-.5,4.27-3.59,4.01-6.29-.2-2.05-3.51-4.86-6.25-4.23-3.66.84-4.9,4.23-4.08,7.1.55,1.92,3.84,3.95,6.33,3.42Z"/>
    <path d="M203.08,271.23c.26,2.69-1.67,5.79-4.01,6.29-2.49.53-5.78-1.5-6.33-3.42-.81-2.87.42-6.26,4.08-7.1,2.75-.63,6.06,2.18,6.25,4.23Z"/>
    <path class="st1" d="M195.03,304.38c.14,1.06-.58,2.78-1.57,3.79l-12.47,12.6.61,46.54c.04,3.25,7.14,5.19,4.05,10.11-1.57,2.49-4.82,5.2-8.29,4.19-3.41-1-6.86-5.22-5.14-9.03l2.96-6.52.04-48.28,16-15.42c.89-.86,3.69,1.13,3.81,2.02Z"/>
    <path class="st1" d="M186.51,294.11c.92.69,1.22,3.2.24,4.15l-20.77,19.91c-.09,7.9,0,17.38.47,24.56.09,1.44,2.78,4,2.74,5.29-.03,1.3-2.68,3.73-2.74,5.16l-.81,24.45-15.77,16.2c-2.11,2.16-1.23,5.82.4,7.95,3.04,3.96.62,7.83-2.81,9.85-2.58,1.53-6.22.51-8.28-2.63-2.14-3.25-.63-7.43,3.64-9.55l.21-7.99,17.1-17.71c.16-6.74.11-15.46-.62-21.2-.15-1.25-2.26-3.66-2.67-4.7-.48-1.21,2.96-3.7,2.99-5.35l.51-27.87,21.4-20.3c.97-.92,3.66-1.06,4.8-.2Z"/>
    <path class="st1" d="M176.68,284.38c.76.6,1.59,3.1.54,4l-28.87,24.76-.26,30.75c-6.57,6.68-12.81,12.69-19.05,19.73-2.18,2.46,1.04,8.08-3.94,9.22-3.91.9-7.01-1.03-8.14-4.84-1.39-4.72,2.83-5.54,5.73-8.13,6.77-6.07,13.1-12.53,19.81-19.22l.53-31.61,29.53-24.8c.8-.67,3.35-.45,4.11.15Z"/>
    <path class="st1" d="M168.82,277.95l-34.75,25.78-.33,25.22-28.63,28.41-.09,22.94-26.87,26.75c-1.94.49-4.66-4.15-3.21-5.59l24.46-24.56c.53-4.11.37-9.4-.22-13.71-12.52,12.34-24.62,23.94-36.18,36.73-2.21,2.45-.12,8.76-5.84,8.83-3.24.04-7.03-1.09-7.84-5.49-.61-3.28,1.41-7.24,6.1-7.99,1.35-.21,3.73-.77,4.87-1.9l67.79-67.49.58-22.24c-1.79.01-4.54.43-5.35,1.61-.87,1.24-1.47,4.15-2.11,6.56-.5,1.32-4.91.24-7.3-.42l-41.82,27.05-46.45.46c-2.79.03-5.61,3.93-8.28.63-1.73-2.12-2.66-5.69-.66-7.75,6.36-6.56,10.29,8.24,24.59-2.16l18.41-13.4,32.7-.42,68.88-39.47c2.43-1.39,6.09-.43,7.55,1.65ZM84.37,322.2l-22.72-.21-14.06,10.73c24.14.62,18.14,3.06,36.78-10.52Z"/>
    <path class="st1" d="M149.95,356.87c.86.79.87,3.59-.05,4.53l-10.31,10.4-.6,18.96-26.53,27.05c-1.39,1.41-.59,6.81-2.14,7.74-2.06,1.25-5.91,2.31-8.45.47-1.62-1.17-2.04-4.99-1.51-6.99.43-1.66,4.46-2.67,5.8-4l27.52-27.43c.53-23.17-2.37-16.24,12.02-30.54.75-.74,3.54-.84,4.26-.18Z"/>
    <path class="st1" d="M125.18,378.52c.98.72.91,3.68.01,4.61l-34.51,35.51c-1.72,1.76-.08,7.33-3.08,7.99-2.19.48-5.3,1.07-7.21-.02-2.39-1.37-3.62-5.2-2.27-8.07,1.23-2.62,5.8-3.64,8.15-4.97l34.24-34.62c.92-.93,3.85-1.03,4.67-.43Z"/>
    <path class="st1" d="M120.04,322.77l-14.73,12.39c-1.64.14-4.39-3.4-3.94-4.79l10.14-8.47c2.55-2.12,6.19-2.75,8.53.87Z"/>
    <path class="st1" d="M102.39,337.45c.52,3.82-1.36,7.55-4.92,8.17-3.08.55-6.51-1.55-7.56-4.47-1.21-3.33.22-7.49,5-8.44,3.76-.75,7.08,1.95,7.47,4.73Z"/>
    <path class="st1" d="M89.23,349.14c.56.77-1.45,3.41-2.55,3.42l-20.93.24-9.97,9.16c5.55.42,11.38.9,17.12-.53,2.59-.65,5.81-4.79,8.34-2.33,1.94,1.89-1.01,8.58-3.93,8.59l-34.76.1c-5.53.01-4.74,8.25-13.2,6.07-3.24-.84-4.87-4.71-4.26-8.37.42-2.54,4.4-6.07,7.94-5.08,5.38,1.5,10.86,3.26,15.63-.66l14.87-12.22,22.7-.17c.79-.01,2.54,1.18,3,1.8Z"/>
    <path d="M61.64,322l22.72.21c-18.64,13.58-12.64,11.14-36.78,10.52l14.06-10.73Z"/>
  </g>
  <g>
    <path d="M29.85,955.35c.45,8.09-6.8,15.1-15.5,13.23-6.42-1.38-12.29-2.18-18.82,1.31,2.02,2.62,4.9,3.37,7.99,2.99,8.36-1.02,15.49,4.16,16.93,12.13,1.22,6.77-3.09,15.86-11.54,16.19-8.04.33-16.7.3-24.55-1.15-5.88-1.09-10.37-6.27-17.15-6.94,5.97,7.52,13.92,12.94,22.32,17.88,7.83,4.6,8.72,15.11,3.41,21.27-5.54,6.43-15.68,6.34-21.41.17-.96-1.02-3.57-1.42-4.46-.78-4.45,3.26,7.88,10.43-6.19,21.63-6.06,4.82-13.75.62-19.29-1.5-7.96,3.63-15.77,6.24-22.73-1.81-3.75-4.33-8.38-8.46-12.97-12.93-4.66-4.53-10.99,9.38-23.33.29-5.31-3.9-6.5-9.63-5.5-17.02l-11.27-11.43c-6.77,2.7-12.84,1.56-17.27-2.4-5.88-5.27-4.39-11.57-3.19-18.87,2.16-13.2.55-26.49,1-39.97l-33.6-31.91c-5-4.76-6.96-10.52-5.61-16.99l-19.07-18.66-20.19,19.37c.81,5.14.05,10.22-3.86,14.04l-35.29,34.49c.46,12.98-1.16,26.59.86,39.42,1.06,6.73,4.41,12.65-1.63,18.65-3.96,3.94-10.44,6.25-17.24,2.9l-12.73,12.51c.73,7.07-2.02,13.51-8.02,16.98-6.19,3.58-13.07,1.78-19.3-3.79l-14.18,15.11c-6.57,6.99-15.17,7.49-22.77,1.47-4.94,3.1-10.95,5.92-16.56,3.46-5.22-2.29-10.11-7.39-9.36-14.53.29-2.74,2.46-6.24,4.01-9.05-.42-1.31-4.33-1.75-5.4-.35-5.68,7.48-14.73,8.26-21.51,2.72-6.05-4.94-7.75-16.65.03-21.52,8.66-5.41,17.13-10.52,23.3-19.52-6.98.9-11.69,6.05-17.91,7.53-7.76,1.85-17.42,1.92-25.36.91-7.6-.97-10.94-9.92-9.67-15.73,3.52-16.03,18.47-9.96,23.59-14.57-9.77-8.33-23.41,4.16-30.84-8.61-2.52-4.31-2.63-10.53.89-14.7,7.97-9.45,17.11-.35,23.79-4.1,7.89-4.44,14.33-11.81,22.87-14.82,10.16-3.57,21.68.69,32.57-1.37l64.58-36.86c.6-3.33,1.5-7.47,3.69-9.46,6.89-6.27,13.37-11.91,20.53-17.57,5.22-4.13,12.21-1.77,17.87.15l20.8-18.62-126.68-129.67c-7.07-7.24-8.24-17.39-1.83-24.39,6.35-6.95,17.37-7.89,24.82-.81l134.9,128.18,36.3-34.19,99.09-92.6c7.4-6.93,16.77-9.04,24.74-2.11,6.57,5.7,7.94,17.16.79,24.51l-96.02,98.78-30.88,32.46,18.38,17.07c5.56-.58,12.4-1.88,17.59,2.07,8.46,6.44,16.38,13.08,24.34,20.11l1.62,6.08,64.84,37,27.97.09c3.7.01,7.53,1.6,10.49,3.82,6.14,4.62,12.8,9.41,19.51,13.13,1.8.99,6.27-.6,8.62-1.03,6.93-1.26,15.27,4.46,15.71,12.22ZM20.82,960.11c1.61-1.78,2.08-5.96.15-8.1-2.08-2.32-5.32-1.63-8.52.15-3.38,1.87-10.98,1.18-14.45-1.4l-19.55-14.51-34.64-.62-66.32-37.91c-3.28-1.88-6.41-2.67-9.27.42l34.4,23.45.36,27.16,30.43,30.64.1,22.55,25.69,25.33c1.92-.13,4.61-3.33,4.09-5l-23.76-23.4c-.51-4.31-.51-9.07-.18-14.04l35.8,35.9c.56,2.37,1.4,5.83,2.94,6.76,1.83,1.1,5.91,1.52,7.61.42,3.18-2.04,3.45-6.34,2-9.2-1.25-2.43-4.56-3.72-8.38-3.26l-70.82-69.83.13-21.21c2.62-.42,5.88,1.53,5.82,3.69-.28,9.36,5.21.77,12.62,5.5l39.05,25,45.98.34c2.63.02,5.93,4.28,8.74,1.15ZM9.17,993.61c3.57-1.4,4.55-6.22,3.01-9.15-1.8-3.43-5.71-4.83-9.18-3.37-13.47,5.71-20.14-7.57-29.51-13.28l-21.13-.3c-1.07-.01-3.52,1.62-3.35,2.67.13.86,1.78,2.44,2.87,2.45l18.91.31,10.39,9.17c-22.93,3.68-17.5-8.17-26.7-1.95.36,2.34,3.77,7.58,7.18,7.62l37.1.45c2.45,3.97,5.47,7.32,10.42,5.37ZM-46.39,1047.52c3.42-.43,6.89-2.27,6.48-6.71-.37-3.95-3.7-6.42-8.84-6.38l-33.82-35.2c-.96-.99-4.09-.96-4.6,0-.5.94-.29,3.73.45,4.52l33.7,35.52c2.44,2.58.25,9.05,6.63,8.25ZM-58.05,966.09c4.27-.36,6.75-4.31,5.76-8.2-1.05-4.21-5.19-6.03-9.93-4.91-4.4-4.57-10.8-9.96-16.15-12.63-.88-.45-4.52.88-4.15,1.69.3.66,1.1,2.28,1.77,2.82l15.26,12.59c-.81,5.54,3.07,8.98,7.44,8.62ZM-59.71,708.41c3.9-3.89,4.94-7.98,1.3-12.24-2.96-3.45-8.09-3.17-11.94.46l-98.81,92.88-87.44,80.51c6.55,5.6,11.18,11.07,17,18.05l30.2-30.6,149.69-149.06ZM-63.16,1042.31c1.03-4.9-3.28-4.57-6.29-7.6l-27.56-27.78-.22-18.77-12.22-12.25c-.78-.78-3.63-.8-3.95.09-.25.67-.61,3.5-.13,4.01l10.88,11.43.34,19.13,27.2,28.15c2.12,2.18-1.15,8.69,4.52,8.55,3.71-.09,6.51-.56,7.45-4.96ZM-77.96,986.83c.64-5.71-4.23-4.4-7.3-6.68-7.23-5.42-13.6-12.65-20.27-19.12l-.11-33.27-31.32-24.83c-1.89,1.25-3.52,2.48-5.07,3.85l30.7,24.96.03,32.51,21.38,20.79c-1.55,6.09,2.39,8.26,6.33,8.34,3.78.09,5.29-3.6,5.62-6.56ZM-104.15,1030.76c2.13-1.27,3.88-6.13,1.62-8.37-3.26-3.26-3.96-5.92-3.53-10.41l-16.3-17.22c-.68-6.86-.83-15.48.16-21.53.26-1.6,3.9-4.73,3.17-5.87l-3.7-5.78c-3.85-6.03-.41-18.59-.66-27.31l-21.92-20.38c-.78-.73-2.91-1.09-3.83-.92-.92.17-2.51,3.15-1.87,3.76l21.6,20.58-.08,25.61c0,1.41-2.65,3.82-2.36,5.12.26,1.13,2.96,3.48,3.04,4.74.42,6.69.38,16.46.41,24.37l13.92,14.89c1,1.07,2.68,3.63,2.42,4.91-.25,1.28-1.51,3.14-2.67,4.82-1.91,2.76-.92,7.35,1.68,8.99,2.59,1.64,6.26,1.54,8.88-.01ZM-128.33,887.47l-19.9-16.32c-2.28-1.87-6.35-2.18-9.01-.33-9.41,6.57-25.66,21.69-26.88,33.33l18.09,17.49c9.52-14.41,21.91-29.02,37.7-34.18ZM-135.05,998.16c3.52-4.14-2.01-6.75-2.05-10.18l-.61-49.81-17.67-17.27-3.24,5.04,14.96,14.99v47.03c-4.6,2.82-5.86,8.6-1.88,12.12,4.13,3.65,8.28.69,10.49-1.91ZM-168.77,869.14l-16.81-15.77-17.47,18.54,16.15,15.31c5.5-6.86,10.98-12.29,18.12-18.08ZM-220.55,823.5l-135.15-128.52c-3.33-3.16-8.46-.98-10.18,1.51-1.8,2.59-2.16,7.61.6,10.41l128.92,131.24c5.72-4.91,11.05-9.56,15.82-14.65ZM-243.07,905.05c1.9-10.34-27.81-41.1-35.59-34.34l-18.52,16.11c18.6,7.93,26.85,19.19,38.11,33.72l16-15.49ZM-268.55,928.36c1-1.01,1.72-2.72,1.57-3.79-.12-.89-2.92-2.88-3.81-2.02l-16,15.42-.04,48.28-2.96,6.52c-1.73,3.81,1.73,8.03,5.14,9.03,3.47,1.01,6.72-1.7,8.29-4.19,3.09-4.92-4.01-6.86-4.05-10.11l-.61-46.54,12.47-12.6ZM-275.24,918.45c.98-.94.68-3.45-.24-4.15-1.14-.87-3.83-.73-4.8.2l-21.4,20.3-.51,27.87c-.02,1.65-3.46,4.15-2.99,5.35.41,1.04,2.52,3.45,2.67,4.7.73,5.74.78,14.46.62,21.2l-17.1,17.71-.21,7.99c-4.27,2.13-5.78,6.31-3.64,9.55,2.06,3.14,5.7,4.16,8.28,2.63,3.43-2.02,5.85-5.88,2.81-9.85-1.63-2.13-2.51-5.79-.4-7.95l15.77-16.2.81-24.45c.05-1.42,2.7-3.85,2.74-5.16.04-1.29-2.65-3.84-2.74-5.29-.47-7.18-.55-16.65-.47-24.56l20.77-19.91ZM-284.78,908.57c1.04-.89.22-3.4-.54-4s-3.31-.83-4.11-.15l-29.53,24.8-.53,31.61c-6.71,6.69-13.04,13.15-19.81,19.22-2.9,2.59-7.12,3.41-5.73,8.13,1.13,3.81,4.23,5.74,8.14,4.84,4.98-1.14,1.76-6.75,3.94-9.22,6.24-7.03,12.48-13.05,19.05-19.73l.26-30.75,28.87-24.76ZM-327.93,923.93l34.75-25.78c-1.45-2.08-5.11-3.04-7.55-1.65l-68.88,39.47-32.7.42-18.41,13.4c-14.3,10.4-18.23-4.4-24.59,2.16-2,2.06-1.06,5.63.66,7.75,2.67,3.3,5.49-.6,8.28-.63l46.45-.46,41.82-27.05c2.39.66,6.8,1.75,7.3.42.64-2.41,1.24-5.32,2.11-6.56.81-1.17,3.56-1.6,5.35-1.61l-.58,22.24-67.79,67.49c-1.14,1.13-3.53,1.69-4.87,1.9-4.69.75-6.71,4.71-6.1,7.99.8,4.41,4.6,5.54,7.84,5.49,5.72-.07,3.63-6.37,5.84-8.83,11.56-12.79,23.67-24.38,36.18-36.73.59,4.31.75,9.6.22,13.71l-24.46,24.56c-1.44,1.44,1.27,6.08,3.21,5.59l26.87-26.75.09-22.94,28.63-28.41.33-25.22ZM-312.1,981.59c.92-.93.91-3.73.05-4.53-.72-.65-3.51-.55-4.26.18-14.38,14.3-11.49,7.37-12.02,30.54l-27.52,27.43c-1.34,1.32-5.36,2.33-5.8,4-.53,2-.11,5.82,1.51,6.99,2.54,1.85,6.38.78,8.45-.47,1.55-.93.75-6.33,2.14-7.74l26.53-27.05.6-18.96,10.31-10.4ZM-336.81,1003.32c.9-.93.97-3.9-.01-4.61-.81-.6-3.75-.5-4.67.43l-34.24,34.62c-2.36,1.34-6.93,2.36-8.15,4.97-1.35,2.87-.12,6.7,2.27,8.07,1.91,1.1,5.02.5,7.21.02,3.01-.66,1.37-6.23,3.08-7.99l34.51-35.51ZM-356.69,955.35l14.73-12.39c-2.34-3.62-5.98-2.99-8.53-.87l-10.14,8.47c-.45,1.39,2.3,4.93,3.94,4.79ZM-364.53,965.82c3.56-.63,5.44-4.35,4.92-8.17-.39-2.78-3.71-5.48-7.47-4.73-4.79.94-6.21,5.1-5,8.44,1.04,2.92,4.47,5.03,7.56,4.47ZM-375.32,972.75c1.1-.01,3.12-2.65,2.55-3.42-.46-.62-2.2-1.81-3-1.8l-22.7.17-14.87,12.22c-4.78,3.92-10.25,2.16-15.63.66-3.54-.99-7.51,2.54-7.94,5.08-.62,3.66,1.02,7.53,4.26,8.37,8.46,2.18,7.68-6.06,13.2-6.07l34.76-.1c2.92-.01,5.87-6.7,3.93-8.59-2.53-2.45-5.74,1.68-8.34,2.33-5.74,1.43-11.57.96-17.12.53l9.97-9.16,20.93-.24Z"/>
    <path class="st1" d="M20.97,952.01c1.93,2.14,1.45,6.32-.15,8.1-2.81,3.13-6.11-1.13-8.74-1.15l-45.98-.34-39.05-25c-7.4-4.73-12.9,3.85-12.62-5.5.07-2.16-3.2-4.11-5.82-3.69l-.13,21.21,70.82,69.83c3.82-.47,7.13.83,8.38,3.26,1.45,2.86,1.18,7.15-2,9.2-1.7,1.1-5.78.67-7.61-.42-1.54-.93-2.38-4.4-2.94-6.76l-35.8-35.9c-.33,4.97-.33,9.73.18,14.04l23.76,23.4c.52,1.67-2.17,4.87-4.09,5l-25.69-25.33-.1-22.55-30.43-30.64-.36-27.16-34.4-23.45c2.87-3.09,5.99-2.3,9.27-.42l66.32,37.91,34.64.62,19.55,14.51c3.47,2.58,11.07,3.27,14.45,1.4,3.2-1.78,6.44-2.48,8.52-.15ZM-9.52,952.82l-14.28-10.91-24.69-.07c19.95,12.81,13.55,12.31,38.96,10.98Z"/>
    <path class="st1" d="M12.18,984.46c1.54,2.93.56,7.75-3.01,9.15-4.95,1.94-7.97-1.4-10.42-5.37l-37.1-.45c-3.41-.04-6.82-5.28-7.18-7.62,9.2-6.22,3.77,5.63,26.7,1.95l-10.39-9.17-18.91-.31c-1.09-.01-2.74-1.6-2.87-2.45-.16-1.05,2.28-2.68,3.35-2.67l21.13.3c9.37,5.71,16.03,18.99,29.51,13.28,3.47-1.47,7.38-.07,9.18,3.37Z"/>
    <path d="M-23.8,941.91l14.28,10.91c-25.41,1.34-19.01,1.83-38.96-10.98l24.69.07Z"/>
    <path class="st1" d="M-39.91,1040.81c.41,4.44-3.06,6.27-6.48,6.71-6.38.8-4.19-5.67-6.63-8.25l-33.7-35.52c-.74-.78-.94-3.57-.45-4.52.51-.96,3.65-.99,4.6,0l33.82,35.2c5.14-.03,8.47,2.43,8.84,6.38Z"/>
    <path class="st1" d="M-52.29,957.89c.99,3.89-1.5,7.84-5.76,8.2-4.36.36-8.25-3.08-7.44-8.62l-15.26-12.59c-.67-.54-1.47-2.16-1.77-2.82-.37-.81,3.27-2.14,4.15-1.69,5.35,2.67,11.76,8.06,16.15,12.63,4.74-1.12,8.88.69,9.93,4.91Z"/>
    <path class="st0" d="M-58.41,696.18c3.64,4.26,2.59,8.35-1.3,12.24l-149.69,149.06-30.2,30.6c-5.82-6.98-10.45-12.45-17-18.05l87.44-80.51,98.81-92.88c3.85-3.63,8.98-3.91,11.94-.46Z"/>
    <path class="st1" d="M-69.44,1034.71c3.01,3.03,7.32,2.7,6.29,7.6-.93,4.4-3.73,4.87-7.45,4.96-5.67.13-2.4-6.37-4.52-8.55l-27.2-28.15-.34-19.13-10.88-11.43c-.48-.51-.12-3.33.13-4.01.33-.89,3.17-.87,3.95-.09l12.22,12.25.22,18.77,27.56,27.78Z"/>
    <path class="st1" d="M-85.26,980.16c3.06,2.28,7.94.97,7.3,6.68-.34,2.95-1.85,6.64-5.62,6.56-3.94-.08-7.88-2.25-6.33-8.34l-21.38-20.79-.03-32.51-30.7-24.96c1.55-1.38,3.18-2.61,5.07-3.85l31.32,24.83.11,33.27c6.67,6.47,13.04,13.7,20.27,19.12Z"/>
    <path class="st1" d="M-102.53,1022.39c2.26,2.24.51,7.1-1.62,8.37-2.62,1.55-6.29,1.65-8.88.01-2.61-1.64-3.59-6.23-1.68-8.99,1.16-1.68,2.42-3.54,2.67-4.82.26-1.28-1.42-3.83-2.42-4.91l-13.92-14.89c-.03-7.91.01-17.68-.41-24.37-.08-1.26-2.78-3.62-3.04-4.74-.29-1.3,2.36-3.71,2.36-5.12l.08-25.61-21.6-20.58c-.64-.61.94-3.58,1.87-3.76.92-.16,3.05.2,3.83.92l21.92,20.38c.25,8.73-3.19,21.29.66,27.31l3.7,5.78c.73,1.14-2.91,4.28-3.17,5.87-.99,6.05-.85,14.67-.16,21.53l16.3,17.22c-.43,4.49.27,7.15,3.53,10.41Z"/>
    <path class="st2" d="M-148.23,871.15l19.9,16.32c-15.8,5.16-28.18,19.77-37.7,34.18l-18.09-17.49c1.22-11.64,17.47-26.76,26.88-33.33,2.66-1.86,6.73-1.54,9.01.33ZM-160.94,897.75c2.78-.97,4.69-3.9,4.26-6.37-.41-2.32-3.76-4.91-6.64-4.16-3.44.89-4.59,4.51-3.66,6.88.89,2.3,4.01,4.36,6.05,3.65Z"/>
    <path class="st1" d="M-137.1,987.97c.04,3.43,5.57,6.05,2.05,10.18-2.2,2.61-6.36,5.56-10.49,1.91-3.98-3.52-2.72-9.29,1.87-12.12v-47.03s-14.95-14.99-14.95-14.99l3.24-5.04,17.67,17.27.61,49.81Z"/>
    <path d="M-156.68,891.37c.43,2.48-1.48,5.41-4.26,6.37-2.04.72-5.16-1.35-6.05-3.65-.93-2.38.22-5.99,3.66-6.88,2.89-.75,6.23,1.83,6.64,4.16Z"/>
    <path class="st0" d="M-185.57,853.37l16.81,15.77c-7.14,5.79-12.62,11.21-18.12,18.08l-16.15-15.31,17.47-18.54Z"/>
    <path class="st0" d="M-355.7,694.98l135.15,128.52c-4.77,5.08-10.1,9.74-15.82,14.65l-128.92-131.24c-2.76-2.8-2.4-7.82-.6-10.41,1.73-2.49,6.85-4.67,10.18-1.51Z"/>
    <path class="st2" d="M-278.65,870.71c7.77-6.76,37.49,24,35.59,34.34l-16,15.49c-11.26-14.53-19.51-25.79-38.11-33.72l18.52-16.11ZM-262.92,897.71c2.33-.5,4.27-3.59,4.01-6.29-.2-2.05-3.51-4.86-6.25-4.23-3.66.84-4.9,4.23-4.08,7.1.55,1.92,3.84,3.95,6.33,3.42Z"/>
    <path d="M-258.92,891.43c.26,2.69-1.67,5.79-4.01,6.29-2.49.53-5.78-1.5-6.33-3.42-.81-2.87.42-6.26,4.08-7.1,2.75-.63,6.06,2.18,6.25,4.23Z"/>
    <path class="st1" d="M-266.97,924.57c.14,1.06-.58,2.78-1.57,3.79l-12.47,12.6.61,46.54c.04,3.25,7.14,5.19,4.05,10.11-1.57,2.49-4.82,5.2-8.29,4.19-3.41-1-6.86-5.22-5.14-9.03l2.96-6.52.04-48.28,16-15.42c.89-.86,3.69,1.13,3.81,2.02Z"/>
    <path class="st1" d="M-275.48,914.3c.92.69,1.22,3.2.24,4.15l-20.77,19.91c-.09,7.9,0,17.38.47,24.56.09,1.44,2.78,4,2.74,5.29-.03,1.3-2.68,3.73-2.74,5.16l-.81,24.45-15.77,16.2c-2.11,2.16-1.23,5.82.4,7.95,3.04,3.96.62,7.83-2.81,9.85-2.58,1.53-6.22.51-8.28-2.63-2.14-3.25-.63-7.43,3.64-9.55l.21-7.99,17.1-17.71c.16-6.74.11-15.46-.62-21.2-.15-1.25-2.26-3.66-2.67-4.7-.48-1.21,2.96-3.7,2.99-5.35l.51-27.87,21.4-20.3c.97-.92,3.66-1.06,4.8-.2Z"/>
    <path class="st1" d="M-285.32,904.58c.76.6,1.59,3.1.54,4l-28.87,24.76-.26,30.75c-6.57,6.68-12.81,12.69-19.05,19.73-2.18,2.46,1.04,8.08-3.94,9.22-3.91.9-7.01-1.03-8.14-4.84-1.39-4.72,2.83-5.54,5.73-8.13,6.77-6.07,13.1-12.53,19.81-19.22l.53-31.61,29.53-24.8c.8-.67,3.35-.45,4.11.15Z"/>
    <path class="st1" d="M-293.18,898.15l-34.75,25.78-.33,25.22-28.63,28.41-.09,22.94-26.87,26.75c-1.94.49-4.66-4.15-3.21-5.59l24.46-24.56c.53-4.11.37-9.4-.22-13.71-12.52,12.34-24.62,23.94-36.18,36.73-2.21,2.45-.12,8.76-5.84,8.83-3.24.04-7.03-1.09-7.84-5.49-.61-3.28,1.41-7.24,6.1-7.99,1.35-.21,3.73-.77,4.87-1.9l67.79-67.49.58-22.24c-1.79.01-4.54.43-5.35,1.61-.87,1.24-1.47,4.15-2.11,6.56-.5,1.32-4.91.24-7.3-.42l-41.82,27.05-46.45.46c-2.79.03-5.61,3.93-8.28.63-1.73-2.12-2.66-5.69-.66-7.75,6.36-6.56,10.29,8.24,24.59-2.16l18.41-13.4,32.7-.42,68.88-39.47c2.43-1.39,6.09-.43,7.55,1.65ZM-377.63,942.4l-22.72-.21-14.06,10.73c24.14.62,18.14,3.06,36.78-10.52Z"/>
    <path class="st1" d="M-312.05,977.06c.86.79.87,3.59-.05,4.53l-10.31,10.4-.6,18.96-26.53,27.05c-1.39,1.41-.59,6.81-2.14,7.74-2.06,1.25-5.91,2.31-8.45.47-1.62-1.17-2.04-4.99-1.51-6.99.43-1.66,4.46-2.67,5.8-4l27.52-27.43c.53-23.17-2.37-16.24,12.02-30.54.75-.74,3.54-.84,4.26-.18Z"/>
    <path class="st1" d="M-336.82,998.71c.98.72.91,3.68.01,4.61l-34.51,35.51c-1.72,1.76-.08,7.33-3.08,7.99-2.19.48-5.3,1.07-7.21-.02-2.39-1.37-3.62-5.2-2.27-8.07,1.23-2.62,5.8-3.64,8.15-4.97l34.24-34.62c.92-.93,3.85-1.03,4.67-.43Z"/>
    <path class="st1" d="M-341.96,942.96l-14.73,12.39c-1.64.14-4.39-3.4-3.94-4.79l10.14-8.47c2.55-2.12,6.19-2.75,8.53.87Z"/>
    <path class="st1" d="M-359.61,957.64c.52,3.82-1.36,7.55-4.92,8.17-3.08.55-6.51-1.55-7.56-4.47-1.21-3.33.22-7.49,5-8.44,3.76-.75,7.08,1.95,7.47,4.73Z"/>
    <path class="st1" d="M-372.77,969.33c.56.77-1.45,3.41-2.55,3.42l-20.93.24-9.97,9.16c5.55.42,11.38.9,17.12-.53,2.59-.65,5.81-4.79,8.34-2.33,1.94,1.89-1.01,8.58-3.93,8.59l-34.76.1c-5.53.01-4.74,8.25-13.2,6.07-3.24-.84-4.87-4.71-4.26-8.37.42-2.54,4.4-6.07,7.94-5.08,5.38,1.5,10.86,3.26,15.63-.66l14.87-12.22,22.7-.17c.79-.01,2.54,1.18,3,1.8Z"/>
    <path d="M-400.35,942.19l22.72.21c-18.64,13.58-12.64,11.14-36.78,10.52l14.06-10.73Z"/>
  </g>
  <g>
    <path class="st1" d="M140.57,809.06l21.2,65.26,21.05-65.26h41.2v106.77h-31.28v-60.15l-20.3,59.7h-21.5l-20.15-59.7v60.15h-31.28v-106.77h41.05Z"/>
    <path class="st1" d="M238.01,862.6c0-34.44,20.9-55.94,54.14-55.94s54.13,21.5,54.13,55.94-20.9,55.64-54.13,55.64-54.14-21.5-54.14-55.64ZM292.14,893.42c14.29,0,22.26-11.13,22.26-30.83s-7.97-31.13-22.26-31.13-22.26,11.28-22.26,31.13,7.97,30.83,22.26,30.83Z"/>
    <path class="st1" d="M447.77,846.06c0,22.26-17.14,36.69-43.76,36.69h-15.19v33.08h-31.28v-106.77h46.47c26.62,0,43.76,14.59,43.76,36.99ZM401.61,857.94c8.42,0,14.29-4.06,14.29-11.88s-5.71-12.18-14.29-12.18h-12.78v24.06h12.78Z"/>
    <path class="st0" d="M498.9,834.33c25.86,0,43.91,18.35,42.71,46.32l-.15,2.86h-54.89c.15,8.27,4.96,13.53,12.33,13.53,4.96,0,9.47-3.01,11.13-7.22l30.53,2.1c-4.96,15.79-20.9,25.71-41.65,25.71-26.77,0-44.51-16.54-44.51-41.65s17.75-41.65,44.51-41.65ZM510.93,867.71c-.45-8.27-5.41-12.78-12.03-12.78-7.07,0-11.88,5.11-12.33,12.78h24.36Z"/>
    <path class="st0" d="M583.25,836.13l.6,17.14c3.31-11.28,9.62-17.14,19.4-17.14h6.77v21.65h-7.22c-13.83,0-18.8,5.11-18.8,16.39v41.65h-30.98v-79.7h30.23Z"/>
    <path class="st0" d="M659.94,834.33c27.37,0,40.45,11.73,40.45,35.79v19.1c0,6.92,2.71,7.52,5.11,7.52h2.71v19.1l-2.86.3c-2.86.3-25.41,5.26-29.32-12.18-4.36,8.87-13.68,13.68-29.77,13.68s-28.42-8.87-28.42-22.86,9.92-20.15,30.38-24.36l20.9-4.36c-.15-10.08-3.01-14.59-9.32-14.59-5.71,0-9.02,3.61-10.23,11.58l-30.53-1.2c3.01-18.35,16.69-27.52,40.9-27.52ZM657.99,900.04c7.07,0,11.43-5.87,11.43-16.69v-.75l-8.57,1.65c-7.22,1.35-11.43,3.46-11.43,9.02,0,4.06,3.31,6.77,8.57,6.77Z"/>
    <path class="st0" d="M755.88,817.94v18.2h20.6v21.35h-20.6v28.27c0,5.26,3.01,8.42,8.12,8.42h13.08v21.65h-21.8c-20.15,0-30.38-9.47-30.38-30.08v-28.27h-14.13v-21.35h14.13v-18.2h30.98Z"/>
    <path class="st0" d="M782.79,875.98c0-25.11,17.75-41.65,44.66-41.65s44.51,16.54,44.51,41.65-17.74,41.65-44.51,41.65-44.66-16.54-44.66-41.65ZM827.45,895.83c8.42,0,12.93-7.07,12.93-19.85s-4.51-19.85-12.93-19.85-13.08,7.07-13.08,19.85,4.66,19.85,13.08,19.85Z"/>
    <path class="st0" d="M913.16,836.13l.6,17.14c3.31-11.28,9.62-17.14,19.4-17.14h6.77v21.65h-7.22c-13.83,0-18.8,5.11-18.8,16.39v41.65h-30.98v-79.7h30.23Z"/>
  </g>
  <g>
    <path class="st0" d="M136.79,752.96h-11.83v31.3h-11.95v-31.3h-11.83v-9.48h35.61v9.48Z"/>
    <path class="st0" d="M141.79,743.49h11.95v15.56h11.2v-15.56h11.95v40.78h-11.95v-15.79h-11.2v15.79h-11.95v-40.78Z"/>
    <path class="st0" d="M214.32,743.49v9.48h-18.72v6.2h18.03v9.3h-18.03v6.32h19.18v9.48h-31.13v-40.78h30.67Z"/>
  </g>
</svg>